<?xml version="1.0" encoding="UTF-8" standalone="no"?>
<!DOCTYPE svg PUBLIC "-//W3C//DTD SVG 1.1//EN"
 "http://www.w3.org/Graphics/SVG/1.1/DTD/svg11.dtd">
<!-- Generated by graphviz version 2.38.0 (20140413.2041)
 -->
<!-- Title: src Pages: 1 -->
<svg width="274pt" height="132pt"
 viewBox="0.00 0.00 274.00 132.00" xmlns="http://www.w3.org/2000/svg" xmlns:xlink="http://www.w3.org/1999/xlink">
<g id="graph0" class="graph" transform="scale(1 1) rotate(0) translate(4 128)">
<title>src</title>
<polygon fill="white" stroke="none" points="-4,4 -4,-128 270,-128 270,4 -4,4"/>
<g id="clust1" class="cluster"><title>clusterdir_68267d1309a1af8e8297ef4c3efbcdba</title>
<g id="a_clust1"><a xlink:href="dir_68267d1309a1af8e8297ef4c3efbcdba.html" target="_top">
<polygon fill="#eeeeff" stroke="black" points="8,-64 8,-116 258,-116 258,-64 8,-64"/>
</a>
</g>
</g>
<!-- dir_68267d1309a1af8e8297ef4c3efbcdba -->
<g id="node1" class="node"><title>dir_68267d1309a1af8e8297ef4c3efbcdba</title>
<text text-anchor="middle" x="223" y="-87.5" font-family="Helvetica,sans-Serif" font-size="10.00">src</text>
</g>
<!-- dir_3f615ade772d23cefe5e20dcb18424a2 -->
<g id="node2" class="node"><title>dir_3f615ade772d23cefe5e20dcb18424a2</title>
<g id="a_node2"><a xlink:href="dir_3f615ade772d23cefe5e20dcb18424a2.html" target="_top" xlink:title="backend">
<polygon fill="white" stroke="black" points="178,-108 124,-108 124,-72 178,-72 178,-108"/>
<text text-anchor="middle" x="151" y="-87.5" font-family="Helvetica,sans-Serif" font-size="10.00">backend</text>
</a>
</g>
</g>
<!-- dir_d44c64559bbebec7f509842c48db8b23 -->
<g id="node4" class="node"><title>dir_d44c64559bbebec7f509842c48db8b23</title>
<g id="a_node4"><a xlink:href="dir_d44c64559bbebec7f509842c48db8b23.html" target="_top" xlink:title="include">
<polygon fill="white" stroke="red" points="133,-36 79,-36 79,-0 133,-0 133,-36"/>
<text text-anchor="middle" x="106" y="-15.5" font-family="Helvetica,sans-Serif" font-size="10.00">include</text>
</a>
</g>
</g>
<!-- dir_3f615ade772d23cefe5e20dcb18424a2&#45;&gt;dir_d44c64559bbebec7f509842c48db8b23 -->
<g id="edge1" class="edge"><title>dir_3f615ade772d23cefe5e20dcb18424a2&#45;&gt;dir_d44c64559bbebec7f509842c48db8b23</title>
<path fill="none" stroke="black" d="M139.876,-71.6966C134.645,-63.5589 128.3,-53.689 122.522,-44.7013"/>
<polygon fill="black" stroke="black" points="125.347,-42.6235 116.996,-36.1043 119.459,-46.4088 125.347,-42.6235"/>
<g id="a_edge1&#45;headlabel"><a xlink:href="dir_000003_000000.html" target="_top" xlink:title="3">
<text text-anchor="middle" x="129.679" y="-41.6118" font-family="Helvetica,sans-Serif" font-size="10.00">3</text>
</a>
</g>
</g>
<!-- dir_21d6825dcf92900a9cbe0a77798d3333 -->
<g id="node3" class="node"><title>dir_21d6825dcf92900a9cbe0a77798d3333</title>
<g id="a_node3"><a xlink:href="dir_21d6825dcf92900a9cbe0a77798d3333.html" target="_top" xlink:title="sequencehandler">
<polygon fill="white" stroke="black" points="106,-108 16,-108 16,-72 106,-72 106,-108"/>
<text text-anchor="middle" x="61" y="-87.5" font-family="Helvetica,sans-Serif" font-size="10.00">sequencehandler</text>
</a>
</g>
</g>
<!-- dir_21d6825dcf92900a9cbe0a77798d3333&#45;&gt;dir_d44c64559bbebec7f509842c48db8b23 -->
<g id="edge2" class="edge"><title>dir_21d6825dcf92900a9cbe0a77798d3333&#45;&gt;dir_d44c64559bbebec7f509842c48db8b23</title>
<path fill="none" stroke="black" d="M72.1236,-71.6966C77.355,-63.5589 83.6999,-53.689 89.4778,-44.7013"/>
<polygon fill="black" stroke="black" points="92.5409,-46.4088 95.0044,-36.1043 86.6526,-42.6235 92.5409,-46.4088"/>
<g id="a_edge2&#45;headlabel"><a xlink:href="dir_000004_000000.html" target="_top" xlink:title="53">
<text text-anchor="middle" x="92.9854" y="-48.4678" font-family="Helvetica,sans-Serif" font-size="10.00">53</text>
</a>
</g>
</g>
</g>
</svg>
