<?xml version="1.0" encoding="UTF-8" standalone="no"?>
<!DOCTYPE svg PUBLIC "-//W3C//DTD SVG 1.1//EN"
 "http://www.w3.org/Graphics/SVG/1.1/DTD/svg11.dtd">
<!-- Generated by graphviz version 2.38.0 (20140413.2041)
 -->
<!-- Title: tym_super_position_rectangle Pages: 1 -->
<svg width="109pt" height="240pt"
 viewBox="0.00 0.00 109.00 240.00" xmlns="http://www.w3.org/2000/svg" xmlns:xlink="http://www.w3.org/1999/xlink">
<g id="graph0" class="graph" transform="scale(1 1) rotate(0) translate(4 236)">
<title>tym_super_position_rectangle</title>
<polygon fill="white" stroke="none" points="-4,4 -4,-236 105,-236 105,4 -4,4"/>
<!-- Node1 -->
<g id="node1" class="node"><title>Node1</title>
<polygon fill="#bfbfbf" stroke="black" points="0,-0.5 0,-30.5 101,-30.5 101,-0.5 0,-0.5"/>
<text text-anchor="start" x="8" y="-18.5" font-family="Helvetica,sans-Serif" font-size="10.00">tym_super_position</text>
<text text-anchor="middle" x="50.5" y="-7.5" font-family="Helvetica,sans-Serif" font-size="10.00">_rectangle</text>
</g>
<!-- Node2 -->
<g id="node2" class="node"><title>Node2</title>
<g id="a_node2"><a xlink:href="structtym__super__position.html" target="_top" xlink:title="tym_super_position">
<polygon fill="white" stroke="black" points="0,-78.5 0,-97.5 101,-97.5 101,-78.5 0,-78.5"/>
<text text-anchor="middle" x="50.5" y="-85.5" font-family="Helvetica,sans-Serif" font-size="10.00">tym_super_position</text>
</a>
</g>
</g>
<!-- Node2&#45;&gt;Node1 -->
<g id="edge1" class="edge"><title>Node2&#45;&gt;Node1</title>
<path fill="none" stroke="#9a32cd" stroke-dasharray="5,2" d="M50.5,-68.2362C50.5,-56.4079 50.5,-41.3829 50.5,-30.5762"/>
<polygon fill="#9a32cd" stroke="#9a32cd" points="47.0001,-68.3553 50.5,-78.3553 54.0001,-68.3554 47.0001,-68.3553"/>
<text text-anchor="middle" x="63" y="-52" font-family="Helvetica,sans-Serif" font-size="10.00"> edge</text>
</g>
<!-- Node3 -->
<g id="node3" class="node"><title>Node3</title>
<g id="a_node3"><a xlink:href="structtym__position.html" target="_top" xlink:title="tym_position">
<polygon fill="white" stroke="black" points="14.5,-145.5 14.5,-164.5 86.5,-164.5 86.5,-145.5 14.5,-145.5"/>
<text text-anchor="middle" x="50.5" y="-152.5" font-family="Helvetica,sans-Serif" font-size="10.00">tym_position</text>
</a>
</g>
</g>
<!-- Node3&#45;&gt;Node2 -->
<g id="edge2" class="edge"><title>Node3&#45;&gt;Node2</title>
<path fill="none" stroke="#9a32cd" stroke-dasharray="5,2" d="M50.5,-135.037C50.5,-122.67 50.5,-107.12 50.5,-97.6273"/>
<polygon fill="#9a32cd" stroke="#9a32cd" points="47.0001,-135.234 50.5,-145.234 54.0001,-135.234 47.0001,-135.234"/>
<text text-anchor="middle" x="61.5" y="-119" font-family="Helvetica,sans-Serif" font-size="10.00"> type</text>
</g>
<!-- Node4 -->
<g id="node4" class="node"><title>Node4</title>
<g id="a_node4"><a xlink:href="structtym__unit.html" target="_top" xlink:title="tym_unit">
<polygon fill="white" stroke="black" points="23.5,-212.5 23.5,-231.5 77.5,-231.5 77.5,-212.5 23.5,-212.5"/>
<text text-anchor="middle" x="50.5" y="-219.5" font-family="Helvetica,sans-Serif" font-size="10.00">tym_unit</text>
</a>
</g>
</g>
<!-- Node4&#45;&gt;Node3 -->
<g id="edge3" class="edge"><title>Node4&#45;&gt;Node3</title>
<path fill="none" stroke="#9a32cd" stroke-dasharray="5,2" d="M50.5,-202.037C50.5,-189.67 50.5,-174.12 50.5,-164.627"/>
<polygon fill="#9a32cd" stroke="#9a32cd" points="47.0001,-202.234 50.5,-212.234 54.0001,-202.234 47.0001,-202.234"/>
<text text-anchor="middle" x="61.5" y="-186" font-family="Helvetica,sans-Serif" font-size="10.00"> axis</text>
</g>
</g>
</svg>
