<?xml version="1.0" encoding="UTF-8" standalone="no"?>
<!DOCTYPE svg PUBLIC "-//W3C//DTD SVG 1.1//EN"
 "http://www.w3.org/Graphics/SVG/1.1/DTD/svg11.dtd">
<!-- Generated by graphviz version 2.38.0 (20140413.2041)
 -->
<!-- Title: tym_absolute_position Pages: 1 -->
<svg width="122pt" height="162pt"
 viewBox="0.00 0.00 122.00 162.00" xmlns="http://www.w3.org/2000/svg" xmlns:xlink="http://www.w3.org/1999/xlink">
<g id="graph0" class="graph" transform="scale(1 1) rotate(0) translate(4 158)">
<title>tym_absolute_position</title>
<polygon fill="white" stroke="none" points="-4,4 -4,-158 118,-158 118,4 -4,4"/>
<!-- Node1 -->
<g id="node1" class="node"><title>Node1</title>
<polygon fill="#bfbfbf" stroke="black" points="0,-0.5 0,-19.5 114,-19.5 114,-0.5 0,-0.5"/>
<text text-anchor="middle" x="57" y="-7.5" font-family="Helvetica,sans-Serif" font-size="10.00">tym_absolute_position</text>
</g>
<!-- Node2 -->
<g id="node2" class="node"><title>Node2</title>
<g id="a_node2"><a xlink:href="structtym__position.html" target="_top" xlink:title="tym_position">
<polygon fill="white" stroke="black" points="21,-67.5 21,-86.5 93,-86.5 93,-67.5 21,-67.5"/>
<text text-anchor="middle" x="57" y="-74.5" font-family="Helvetica,sans-Serif" font-size="10.00">tym_position</text>
</a>
</g>
</g>
<!-- Node2&#45;&gt;Node1 -->
<g id="edge1" class="edge"><title>Node2&#45;&gt;Node1</title>
<path fill="none" stroke="#9a32cd" stroke-dasharray="5,2" d="M57,-57.037C57,-44.6703 57,-29.1198 57,-19.6273"/>
<polygon fill="#9a32cd" stroke="#9a32cd" points="53.5001,-57.2338 57,-67.2338 60.5001,-57.2338 53.5001,-57.2338"/>
<text text-anchor="middle" x="68" y="-41" font-family="Helvetica,sans-Serif" font-size="10.00"> type</text>
</g>
<!-- Node3 -->
<g id="node3" class="node"><title>Node3</title>
<g id="a_node3"><a xlink:href="structtym__unit.html" target="_top" xlink:title="tym_unit">
<polygon fill="white" stroke="black" points="30,-134.5 30,-153.5 84,-153.5 84,-134.5 30,-134.5"/>
<text text-anchor="middle" x="57" y="-141.5" font-family="Helvetica,sans-Serif" font-size="10.00">tym_unit</text>
</a>
</g>
</g>
<!-- Node3&#45;&gt;Node2 -->
<g id="edge2" class="edge"><title>Node3&#45;&gt;Node2</title>
<path fill="none" stroke="#9a32cd" stroke-dasharray="5,2" d="M57,-124.037C57,-111.67 57,-96.1198 57,-86.6273"/>
<polygon fill="#9a32cd" stroke="#9a32cd" points="53.5001,-124.234 57,-134.234 60.5001,-124.234 53.5001,-124.234"/>
<text text-anchor="middle" x="68" y="-108" font-family="Helvetica,sans-Serif" font-size="10.00"> axis</text>
</g>
</g>
</svg>
