<?xml version="1.0" encoding="UTF-8" standalone="no"?>
<!DOCTYPE svg PUBLIC "-//W3C//DTD SVG 1.1//EN"
 "http://www.w3.org/Graphics/SVG/1.1/DTD/svg11.dtd">
<!-- Generated by graphviz version 2.38.0 (20140413.2041)
 -->
<!-- Title: tym_i_pane_screen_state Pages: 1 -->
<svg width="246pt" height="173pt"
 viewBox="0.00 0.00 245.50 173.00" xmlns="http://www.w3.org/2000/svg" xmlns:xlink="http://www.w3.org/1999/xlink">
<g id="graph0" class="graph" transform="scale(1 1) rotate(0) translate(4 169)">
<title>tym_i_pane_screen_state</title>
<polygon fill="white" stroke="none" points="-4,4 -4,-169 241.5,-169 241.5,4 -4,4"/>
<!-- Node1 -->
<g id="node1" class="node"><title>Node1</title>
<polygon fill="#bfbfbf" stroke="black" points="39,-0.5 39,-19.5 167,-19.5 167,-0.5 39,-0.5"/>
<text text-anchor="middle" x="103" y="-7.5" font-family="Helvetica,sans-Serif" font-size="10.00">tym_i_pane_screen_state</text>
</g>
<!-- Node2 -->
<g id="node2" class="node"><title>Node2</title>
<g id="a_node2"><a xlink:href="structtym__i__cell__position.html" target="_top" xlink:title="tym_i_cell_position">
<polygon fill="white" stroke="black" points="0,-67.5 0,-86.5 100,-86.5 100,-67.5 0,-67.5"/>
<text text-anchor="middle" x="50" y="-74.5" font-family="Helvetica,sans-Serif" font-size="10.00">tym_i_cell_position</text>
</a>
</g>
</g>
<!-- Node2&#45;&gt;Node1 -->
<g id="edge1" class="edge"><title>Node2&#45;&gt;Node1</title>
<path fill="none" stroke="#9a32cd" stroke-dasharray="5,2" d="M58.6378,-58.3439C62.3084,-51.6512 66.917,-44.1646 72,-38 77.6301,-31.1718 85.0792,-24.6237 91.2643,-19.6864"/>
<polygon fill="#9a32cd" stroke="#9a32cd" points="55.4726,-56.8451 53.9851,-67.335 61.6895,-60.0623 55.4726,-56.8451"/>
<text text-anchor="middle" x="103" y="-41" font-family="Helvetica,sans-Serif" font-size="10.00"> saved_cursor</text>
</g>
<!-- Node3 -->
<g id="node3" class="node"><title>Node3</title>
<g id="a_node3"><a xlink:href="structtym__i__character__format.html" target="_top" xlink:title="tym_i_character_format">
<polygon fill="white" stroke="black" points="118.5,-67.5 118.5,-86.5 237.5,-86.5 237.5,-67.5 118.5,-67.5"/>
<text text-anchor="middle" x="178" y="-74.5" font-family="Helvetica,sans-Serif" font-size="10.00">tym_i_character_format</text>
</a>
</g>
</g>
<!-- Node3&#45;&gt;Node1 -->
<g id="edge2" class="edge"><title>Node3&#45;&gt;Node1</title>
<path fill="none" stroke="#9a32cd" stroke-dasharray="5,2" d="M159.95,-60.3564C145.205,-47.5777 124.913,-29.9915 112.955,-19.6273"/>
<polygon fill="#9a32cd" stroke="#9a32cd" points="158.036,-63.3294 167.885,-67.2338 162.621,-58.0396 158.036,-63.3294"/>
<text text-anchor="middle" x="182.5" y="-41" font-family="Helvetica,sans-Serif" font-size="10.00"> character_format</text>
</g>
<!-- Node4 -->
<g id="node4" class="node"><title>Node4</title>
<g id="a_node4"><a xlink:href="structtym__i__termcolor.html" target="_top" xlink:title="tym_i_termcolor">
<polygon fill="white" stroke="black" points="135,-145.5 135,-164.5 221,-164.5 221,-145.5 135,-145.5"/>
<text text-anchor="middle" x="178" y="-152.5" font-family="Helvetica,sans-Serif" font-size="10.00">tym_i_termcolor</text>
</a>
</g>
</g>
<!-- Node4&#45;&gt;Node3 -->
<g id="edge3" class="edge"><title>Node4&#45;&gt;Node3</title>
<path fill="none" stroke="#9a32cd" stroke-dasharray="5,2" d="M178,-135.224C178,-119.697 178,-98.3582 178,-86.6165"/>
<polygon fill="#9a32cd" stroke="#9a32cd" points="174.5,-135.282 178,-145.282 181.5,-135.282 174.5,-135.282"/>
<text text-anchor="middle" x="195.5" y="-119" font-family="Helvetica,sans-Serif" font-size="10.00"> bgcolor</text>
<text text-anchor="middle" x="195.5" y="-108" font-family="Helvetica,sans-Serif" font-size="10.00">fgcolor</text>
</g>
</g>
</svg>
