<?xml version="1.0" encoding="UTF-8" standalone="no"?>
<!DOCTYPE svg PUBLIC "-//W3C//DTD SVG 1.1//EN"
 "http://www.w3.org/Graphics/SVG/1.1/DTD/svg11.dtd">
<!-- Generated by graphviz version 2.38.0 (20140413.2041)
 -->
<!-- Title: tym_i_backend Pages: 1 -->
<svg width="1361pt" height="298pt"
 viewBox="0.00 0.00 1361.00 297.50" xmlns="http://www.w3.org/2000/svg" xmlns:xlink="http://www.w3.org/1999/xlink">
<g id="graph0" class="graph" transform="scale(1 1) rotate(0) translate(4 293.5)">
<title>tym_i_backend</title>
<polygon fill="white" stroke="none" points="-4,4 -4,-293.5 1357,-293.5 1357,4 -4,4"/>
<!-- Node1 -->
<g id="node1" class="node"><title>Node1</title>
<polygon fill="#bfbfbf" stroke="black" points="1270,-128 1270,-147 1353,-147 1353,-128 1270,-128"/>
<text text-anchor="middle" x="1311.5" y="-135" font-family="Helvetica,sans-Serif" font-size="10.00">tym_i_backend</text>
</g>
<!-- Node2 -->
<g id="node2" class="node"><title>Node2</title>
<g id="a_node2"><a xlink:href="structtym__i__pane__internal.html" target="_top" xlink:title="tym_i_pane_internal">
<polygon fill="white" stroke="black" points="1018,-128 1018,-147 1122,-147 1122,-128 1018,-128"/>
<text text-anchor="middle" x="1070" y="-135" font-family="Helvetica,sans-Serif" font-size="10.00">tym_i_pane_internal</text>
</a>
</g>
</g>
<!-- Node2&#45;&gt;Node1 -->
<g id="edge1" class="edge"><title>Node2&#45;&gt;Node1</title>
<path fill="none" stroke="#9a32cd" stroke-dasharray="5,2" d="M1132.2,-137.5C1175.39,-137.5 1232.07,-137.5 1269.81,-137.5"/>
<polygon fill="#9a32cd" stroke="#9a32cd" points="1132.09,-134 1122.08,-137.5 1132.08,-141 1132.09,-134"/>
<text text-anchor="middle" x="1196" y="-250.5" font-family="Helvetica,sans-Serif" font-size="10.00"> pane_destroy</text>
<text text-anchor="middle" x="1196" y="-239.5" font-family="Helvetica,sans-Serif" font-size="10.00">pane_set_cursor_mode</text>
<text text-anchor="middle" x="1196" y="-228.5" font-family="Helvetica,sans-Serif" font-size="10.00">pane_create</text>
<text text-anchor="middle" x="1196" y="-217.5" font-family="Helvetica,sans-Serif" font-size="10.00">pane_erase_area</text>
<text text-anchor="middle" x="1196" y="-206.5" font-family="Helvetica,sans-Serif" font-size="10.00">pane_set_character</text>
<text text-anchor="middle" x="1196" y="-195.5" font-family="Helvetica,sans-Serif" font-size="10.00">pane_scroll_region</text>
<text text-anchor="middle" x="1196" y="-184.5" font-family="Helvetica,sans-Serif" font-size="10.00">pane_change_screen</text>
<text text-anchor="middle" x="1196" y="-173.5" font-family="Helvetica,sans-Serif" font-size="10.00">pane_scroll</text>
<text text-anchor="middle" x="1196" y="-162.5" font-family="Helvetica,sans-Serif" font-size="10.00">pane_set_cursor_position</text>
<text text-anchor="middle" x="1196" y="-151.5" font-family="Helvetica,sans-Serif" font-size="10.00">pane_delete_characters</text>
<text text-anchor="middle" x="1196" y="-140.5" font-family="Helvetica,sans-Serif" font-size="10.00">...</text>
</g>
<!-- Node2&#45;&gt;Node2 -->
<g id="edge15" class="edge"><title>Node2&#45;&gt;Node2</title>
<path fill="none" stroke="#9a32cd" stroke-dasharray="5,2" d="M1049.26,-156.9C1050.65,-161.815 1057.56,-165.5 1070,-165.5 1089.91,-165.5 1095.66,-156.065 1087.26,-147.257"/>
<polygon fill="#9a32cd" stroke="#9a32cd" points="1052.64,-157.851 1052.74,-147.257 1046.05,-155.477 1052.64,-157.851"/>
<text text-anchor="middle" x="1070" y="-179.5" font-family="Helvetica,sans-Serif" font-size="10.00"> previous</text>
<text text-anchor="middle" x="1070" y="-168.5" font-family="Helvetica,sans-Serif" font-size="10.00">next</text>
</g>
<!-- Node3 -->
<g id="node3" class="node"><title>Node3</title>
<g id="a_node3"><a xlink:href="structtym__absolute__position__rectangle.html" target="_top" xlink:title="tym_absolute_position\l_rectangle">
<polygon fill="white" stroke="black" points="637,-254.5 637,-284.5 751,-284.5 751,-254.5 637,-254.5"/>
<text text-anchor="start" x="645" y="-272.5" font-family="Helvetica,sans-Serif" font-size="10.00">tym_absolute_position</text>
<text text-anchor="middle" x="694" y="-261.5" font-family="Helvetica,sans-Serif" font-size="10.00">_rectangle</text>
</a>
</g>
</g>
<!-- Node3&#45;&gt;Node2 -->
<g id="edge2" class="edge"><title>Node3&#45;&gt;Node2</title>
<path fill="none" stroke="#9a32cd" stroke-dasharray="5,2" d="M761.227,-277.431C826.545,-281.959 926.932,-279.798 1000,-236.5 1035.69,-215.353 1057.45,-167.695 1065.47,-147.186"/>
<polygon fill="#9a32cd" stroke="#9a32cd" points="761.293,-273.926 751.055,-276.653 760.758,-280.906 761.293,-273.926"/>
<text text-anchor="middle" x="833" y="-281.5" font-family="Helvetica,sans-Serif" font-size="10.00"> absolute_position</text>
</g>
<!-- Node4 -->
<g id="node4" class="node"><title>Node4</title>
<g id="a_node4"><a xlink:href="structtym__absolute__position.html" target="_top" xlink:title="tym_absolute_position">
<polygon fill="white" stroke="black" points="368,-259 368,-278 482,-278 482,-259 368,-259"/>
<text text-anchor="middle" x="425" y="-266" font-family="Helvetica,sans-Serif" font-size="10.00">tym_absolute_position</text>
</a>
</g>
</g>
<!-- Node4&#45;&gt;Node3 -->
<g id="edge3" class="edge"><title>Node4&#45;&gt;Node3</title>
<path fill="none" stroke="#9a32cd" stroke-dasharray="5,2" d="M492.42,-268.749C536.838,-268.915 594.642,-269.132 636.779,-269.289"/>
<polygon fill="#9a32cd" stroke="#9a32cd" points="492.311,-265.248 482.298,-268.711 492.284,-272.248 492.311,-265.248"/>
<text text-anchor="middle" x="559.5" y="-271.5" font-family="Helvetica,sans-Serif" font-size="10.00"> edge</text>
</g>
<!-- Node5 -->
<g id="node5" class="node"><title>Node5</title>
<g id="a_node5"><a xlink:href="structtym__position.html" target="_top" xlink:title="tym_position">
<polygon fill="white" stroke="black" points="112,-237 112,-256 184,-256 184,-237 112,-237"/>
<text text-anchor="middle" x="148" y="-244" font-family="Helvetica,sans-Serif" font-size="10.00">tym_position</text>
</a>
</g>
</g>
<!-- Node5&#45;&gt;Node4 -->
<g id="edge4" class="edge"><title>Node5&#45;&gt;Node4</title>
<path fill="none" stroke="#9a32cd" stroke-dasharray="5,2" d="M194.109,-250.109C241.642,-253.911 316.589,-259.907 367.902,-264.012"/>
<polygon fill="#9a32cd" stroke="#9a32cd" points="194.356,-246.617 184.108,-249.309 193.797,-253.595 194.356,-246.617"/>
<text text-anchor="middle" x="213" y="-254.5" font-family="Helvetica,sans-Serif" font-size="10.00"> type</text>
</g>
<!-- Node10 -->
<g id="node10" class="node"><title>Node10</title>
<g id="a_node10"><a xlink:href="structtym__super__position.html" target="_top" xlink:title="tym_super_position">
<polygon fill="white" stroke="black" points="245.5,-212 245.5,-231 346.5,-231 346.5,-212 245.5,-212"/>
<text text-anchor="middle" x="296" y="-219" font-family="Helvetica,sans-Serif" font-size="10.00">tym_super_position</text>
</a>
</g>
</g>
<!-- Node5&#45;&gt;Node10 -->
<g id="edge10" class="edge"><title>Node5&#45;&gt;Node10</title>
<path fill="none" stroke="#9a32cd" stroke-dasharray="5,2" d="M194.004,-235.096C196.703,-234.526 199.383,-233.988 202,-233.5 215.923,-230.903 231.124,-228.685 245.126,-226.888"/>
<polygon fill="#9a32cd" stroke="#9a32cd" points="193.23,-231.682 184.231,-237.274 194.753,-238.515 193.23,-231.682"/>
<text text-anchor="middle" x="213" y="-236.5" font-family="Helvetica,sans-Serif" font-size="10.00"> type</text>
</g>
<!-- Node6 -->
<g id="node6" class="node"><title>Node6</title>
<g id="a_node6"><a xlink:href="structtym__unit.html" target="_top" xlink:title="tym_unit">
<polygon fill="white" stroke="black" points="0,-237 0,-256 54,-256 54,-237 0,-237"/>
<text text-anchor="middle" x="27" y="-244" font-family="Helvetica,sans-Serif" font-size="10.00">tym_unit</text>
</a>
</g>
</g>
<!-- Node6&#45;&gt;Node5 -->
<g id="edge5" class="edge"><title>Node6&#45;&gt;Node5</title>
<path fill="none" stroke="#9a32cd" stroke-dasharray="5,2" d="M64.1636,-246.5C79.3195,-246.5 96.8758,-246.5 111.915,-246.5"/>
<polygon fill="#9a32cd" stroke="#9a32cd" points="64.1151,-243 54.1151,-246.5 64.115,-250 64.1151,-243"/>
<text text-anchor="middle" x="83" y="-249.5" font-family="Helvetica,sans-Serif" font-size="10.00"> axis</text>
</g>
<!-- Node7 -->
<g id="node7" class="node"><title>Node7</title>
<g id="a_node7"><a xlink:href="structtym__i__cell__position.html" target="_top" xlink:title="tym_i_cell_position">
<polygon fill="white" stroke="black" points="509.5,-117 509.5,-136 609.5,-136 609.5,-117 509.5,-117"/>
<text text-anchor="middle" x="559.5" y="-124" font-family="Helvetica,sans-Serif" font-size="10.00">tym_i_cell_position</text>
</a>
</g>
</g>
<!-- Node7&#45;&gt;Node2 -->
<g id="edge6" class="edge"><title>Node7&#45;&gt;Node2</title>
<path fill="none" stroke="#9a32cd" stroke-dasharray="5,2" d="M619.718,-127.781C720.35,-129.958 923.024,-134.342 1017.87,-136.394"/>
<polygon fill="#9a32cd" stroke="#9a32cd" points="619.793,-124.282 609.719,-127.565 619.641,-131.28 619.793,-124.282"/>
<text text-anchor="middle" x="833" y="-137.5" font-family="Helvetica,sans-Serif" font-size="10.00"> last_mouse_event_pos</text>
</g>
<!-- Node11 -->
<g id="node11" class="node"><title>Node11</title>
<g id="a_node11"><a xlink:href="structtym__i__pane__screen__state.html" target="_top" xlink:title="tym_i_pane_screen_state">
<polygon fill="white" stroke="black" points="769,-82 769,-101 897,-101 897,-82 769,-82"/>
<text text-anchor="middle" x="833" y="-89" font-family="Helvetica,sans-Serif" font-size="10.00">tym_i_pane_screen_state</text>
</a>
</g>
</g>
<!-- Node7&#45;&gt;Node11 -->
<g id="edge12" class="edge"><title>Node7&#45;&gt;Node11</title>
<path fill="none" stroke="#9a32cd" stroke-dasharray="5,2" d="M619.35,-115.279C625.302,-114.279 631.265,-113.332 637,-112.5 680.806,-106.142 730.407,-100.826 768.621,-97.133"/>
<polygon fill="#9a32cd" stroke="#9a32cd" points="618.643,-111.849 609.384,-117 619.834,-118.747 618.643,-111.849"/>
<text text-anchor="middle" x="694" y="-115.5" font-family="Helvetica,sans-Serif" font-size="10.00"> saved_cursor</text>
</g>
<!-- Node8 -->
<g id="node8" class="node"><title>Node8</title>
<g id="a_node8"><a xlink:href="structtym__i__handler__ptr__pair.html" target="_top" xlink:title="tym_i_handler_ptr_pair">
<polygon fill="white" stroke="black" points="775.5,-167 775.5,-186 890.5,-186 890.5,-167 775.5,-167"/>
<text text-anchor="middle" x="833" y="-174" font-family="Helvetica,sans-Serif" font-size="10.00">tym_i_handler_ptr_pair</text>
</a>
</g>
</g>
<!-- Node8&#45;&gt;Node2 -->
<g id="edge7" class="edge"><title>Node8&#45;&gt;Node2</title>
<path fill="none" stroke="#9a32cd" stroke-dasharray="5,2" d="M900.641,-167.251C931.007,-162.835 967.382,-157.261 1000,-151.5 1007.7,-150.139 1015.87,-148.584 1023.78,-147.016"/>
<polygon fill="#9a32cd" stroke="#9a32cd" points="899.985,-163.81 890.588,-168.703 900.985,-170.738 899.985,-163.81"/>
<text text-anchor="middle" x="957.5" y="-168.5" font-family="Helvetica,sans-Serif" font-size="10.00"> resize_handler_list</text>
</g>
<!-- Node9 -->
<g id="node9" class="node"><title>Node9</title>
<g id="a_node9"><a xlink:href="structtym__super__position__rectangle.html" target="_top" xlink:title="tym_super_position\l_rectangle">
<polygon fill="white" stroke="black" points="509,-202.5 509,-232.5 610,-232.5 610,-202.5 509,-202.5"/>
<text text-anchor="start" x="517" y="-220.5" font-family="Helvetica,sans-Serif" font-size="10.00">tym_super_position</text>
<text text-anchor="middle" x="559.5" y="-209.5" font-family="Helvetica,sans-Serif" font-size="10.00">_rectangle</text>
</a>
</g>
</g>
<!-- Node9&#45;&gt;Node2 -->
<g id="edge20" class="edge"><title>Node9&#45;&gt;Node2</title>
<path fill="none" stroke="#9a32cd" stroke-dasharray="5,2" d="M620.272,-222.225C706.867,-226.932 870.964,-227.742 1000,-180.5 1021.74,-172.542 1043.94,-157.133 1057.09,-147.085"/>
<polygon fill="#9a32cd" stroke="#9a32cd" points="620.29,-218.72 610.103,-221.635 619.884,-225.709 620.29,-218.72"/>
<text text-anchor="middle" x="833" y="-224.5" font-family="Helvetica,sans-Serif" font-size="10.00"> super_position</text>
</g>
<!-- Node9&#45;&gt;Node8 -->
<g id="edge8" class="edge"><title>Node9&#45;&gt;Node8</title>
<path fill="none" stroke="#9a32cd" stroke-dasharray="5,2" d="M620.185,-200.989C625.844,-199.697 631.515,-198.507 637,-197.5 683.217,-189.018 736.271,-183.579 775.361,-180.366"/>
<polygon fill="#9a32cd" stroke="#9a32cd" points="618.969,-197.68 610.053,-203.403 620.592,-204.49 618.969,-197.68"/>
<text text-anchor="middle" x="694" y="-200.5" font-family="Helvetica,sans-Serif" font-size="10.00"> callback</text>
</g>
<!-- Node10&#45;&gt;Node9 -->
<g id="edge9" class="edge"><title>Node10&#45;&gt;Node9</title>
<path fill="none" stroke="#9a32cd" stroke-dasharray="5,2" d="M356.936,-220.583C402.935,-219.88 465.68,-218.92 508.884,-218.259"/>
<polygon fill="#9a32cd" stroke="#9a32cd" points="356.747,-217.086 346.802,-220.738 356.854,-224.085 356.747,-217.086"/>
<text text-anchor="middle" x="425" y="-222.5" font-family="Helvetica,sans-Serif" font-size="10.00"> edge</text>
</g>
<!-- Node11&#45;&gt;Node2 -->
<g id="edge11" class="edge"><title>Node11&#45;&gt;Node2</title>
<path fill="none" stroke="#9a32cd" stroke-dasharray="5,2" d="M907.356,-97.2425C936.46,-100.437 970.066,-105.279 1000,-112.5 1015.98,-116.355 1033.37,-122.672 1046.7,-127.992"/>
<polygon fill="#9a32cd" stroke="#9a32cd" points="907.574,-93.7462 897.262,-96.1801 906.841,-100.708 907.574,-93.7462"/>
<text text-anchor="middle" x="957.5" y="-115.5" font-family="Helvetica,sans-Serif" font-size="10.00"> screen</text>
</g>
<!-- Node12 -->
<g id="node12" class="node"><title>Node12</title>
<g id="a_node12"><a xlink:href="structtym__i__character__format.html" target="_top" xlink:title="tym_i_character_format">
<polygon fill="white" stroke="black" points="500,-68 500,-87 619,-87 619,-68 500,-68"/>
<text text-anchor="middle" x="559.5" y="-75" font-family="Helvetica,sans-Serif" font-size="10.00">tym_i_character_format</text>
</a>
</g>
</g>
<!-- Node12&#45;&gt;Node11 -->
<g id="edge13" class="edge"><title>Node12&#45;&gt;Node11</title>
<path fill="none" stroke="#9a32cd" stroke-dasharray="5,2" d="M629.83,-75.3061C666.003,-74.808 710.95,-75.2007 751,-78.5 760.51,-79.2834 770.591,-80.5473 780.291,-81.9863"/>
<polygon fill="#9a32cd" stroke="#9a32cd" points="629.328,-71.8138 619.387,-75.4777 629.443,-78.8128 629.328,-71.8138"/>
<text text-anchor="middle" x="694" y="-81.5" font-family="Helvetica,sans-Serif" font-size="10.00"> character_format</text>
</g>
<!-- Node13 -->
<g id="node13" class="node"><title>Node13</title>
<g id="a_node13"><a xlink:href="structtym__i__termcolor.html" target="_top" xlink:title="tym_i_termcolor">
<polygon fill="white" stroke="black" points="253,-68 253,-87 339,-87 339,-68 253,-68"/>
<text text-anchor="middle" x="296" y="-75" font-family="Helvetica,sans-Serif" font-size="10.00">tym_i_termcolor</text>
</a>
</g>
</g>
<!-- Node13&#45;&gt;Node12 -->
<g id="edge14" class="edge"><title>Node13&#45;&gt;Node12</title>
<path fill="none" stroke="#9a32cd" stroke-dasharray="5,2" d="M349.082,-77.5C392.491,-77.5 454.315,-77.5 499.537,-77.5"/>
<polygon fill="#9a32cd" stroke="#9a32cd" points="349.015,-74.0001 339.014,-77.5 349.014,-81.0001 349.015,-74.0001"/>
<text text-anchor="middle" x="425" y="-91.5" font-family="Helvetica,sans-Serif" font-size="10.00"> bgcolor</text>
<text text-anchor="middle" x="425" y="-80.5" font-family="Helvetica,sans-Serif" font-size="10.00">fgcolor</text>
</g>
<!-- Node14 -->
<g id="node14" class="node"><title>Node14</title>
<g id="a_node14"><a xlink:href="structtym__i__sequence__state.html" target="_top" xlink:title="tym_i_sequence_state">
<polygon fill="white" stroke="black" points="775.5,-44 775.5,-63 890.5,-63 890.5,-44 775.5,-44"/>
<text text-anchor="middle" x="833" y="-51" font-family="Helvetica,sans-Serif" font-size="10.00">tym_i_sequence_state</text>
</a>
</g>
</g>
<!-- Node14&#45;&gt;Node2 -->
<g id="edge16" class="edge"><title>Node14&#45;&gt;Node2</title>
<path fill="none" stroke="#9a32cd" stroke-dasharray="5,2" d="M900.45,-58.6927C931.693,-62.9211 968.837,-70.5906 1000,-84.5 1024,-95.2125 1047.25,-115.847 1059.68,-127.968"/>
<polygon fill="#9a32cd" stroke="#9a32cd" points="900.889,-55.2204 890.529,-57.4372 900.01,-62.165 900.889,-55.2204"/>
<text text-anchor="middle" x="957.5" y="-87.5" font-family="Helvetica,sans-Serif" font-size="10.00"> sequence</text>
</g>
<!-- Node15 -->
<g id="node15" class="node"><title>Node15</title>
<g id="a_node15"><a xlink:href="structtym__i__character.html" target="_top" xlink:title="tym_i_character">
<polygon fill="white" stroke="black" points="790,-6 790,-25 876,-25 876,-6 790,-6"/>
<text text-anchor="middle" x="833" y="-13" font-family="Helvetica,sans-Serif" font-size="10.00">tym_i_character</text>
</a>
</g>
</g>
<!-- Node15&#45;&gt;Node2 -->
<g id="edge17" class="edge"><title>Node15&#45;&gt;Node2</title>
<path fill="none" stroke="#9a32cd" stroke-dasharray="5,2" d="M886.571,-15.7162C921.091,-18.0643 965.98,-25.4861 1000,-46.5 1032.89,-66.8178 1055.71,-108.982 1064.72,-127.923"/>
<polygon fill="#9a32cd" stroke="#9a32cd" points="886.393,-12.201 876.214,-15.141 886.005,-19.1902 886.393,-12.201"/>
<text text-anchor="middle" x="957.5" y="-49.5" font-family="Helvetica,sans-Serif" font-size="10.00"> character</text>
</g>
<!-- Node16 -->
<g id="node16" class="node"><title>Node16</title>
<g id="a_node16"><a xlink:href="uniontym__i__character__data.html" target="_top" xlink:title="tym_i_character_data">
<polygon fill="white" stroke="black" points="504.5,-6 504.5,-25 614.5,-25 614.5,-6 504.5,-6"/>
<text text-anchor="middle" x="559.5" y="-13" font-family="Helvetica,sans-Serif" font-size="10.00">tym_i_character_data</text>
</a>
</g>
</g>
<!-- Node16&#45;&gt;Node15 -->
<g id="edge18" class="edge"><title>Node16&#45;&gt;Node15</title>
<path fill="none" stroke="#9a32cd" stroke-dasharray="5,2" d="M625.049,-15.5C676.045,-15.5 745.739,-15.5 789.812,-15.5"/>
<polygon fill="#9a32cd" stroke="#9a32cd" points="624.79,-12.0001 614.79,-15.5 624.79,-19.0001 624.79,-12.0001"/>
<text text-anchor="middle" x="694" y="-18.5" font-family="Helvetica,sans-Serif" font-size="10.00"> data</text>
</g>
<!-- Node17 -->
<g id="node17" class="node"><title>Node17</title>
<g id="a_node17"><a xlink:href="structtym__i__utf8__character__state.html" target="_top" xlink:title="tym_i_utf8_character\l_state">
<polygon fill="white" stroke="black" points="242,-0.5 242,-30.5 350,-30.5 350,-0.5 242,-0.5"/>
<text text-anchor="start" x="250" y="-18.5" font-family="Helvetica,sans-Serif" font-size="10.00">tym_i_utf8_character</text>
<text text-anchor="middle" x="296" y="-7.5" font-family="Helvetica,sans-Serif" font-size="10.00">_state</text>
</a>
</g>
</g>
<!-- Node17&#45;&gt;Node16 -->
<g id="edge19" class="edge"><title>Node17&#45;&gt;Node16</title>
<path fill="none" stroke="#9a32cd" stroke-dasharray="5,2" d="M360.264,-15.5C404.346,-15.5 462.527,-15.5 504.443,-15.5"/>
<polygon fill="#9a32cd" stroke="#9a32cd" points="360.234,-12.0001 350.234,-15.5 360.234,-19.0001 360.234,-12.0001"/>
<text text-anchor="middle" x="425" y="-18.5" font-family="Helvetica,sans-Serif" font-size="10.00"> utf8</text>
</g>
</g>
</svg>
