<?xml version="1.0" encoding="UTF-8" standalone="no"?>
<!DOCTYPE svg PUBLIC "-//W3C//DTD SVG 1.1//EN"
 "http://www.w3.org/Graphics/SVG/1.1/DTD/svg11.dtd">
<!-- Generated by graphviz version 2.38.0 (20140413.2041)
 -->
<!-- Title: tym_absolute_position_rectangle Pages: 1 -->
<svg width="122pt" height="240pt"
 viewBox="0.00 0.00 122.00 240.00" xmlns="http://www.w3.org/2000/svg" xmlns:xlink="http://www.w3.org/1999/xlink">
<g id="graph0" class="graph" transform="scale(1 1) rotate(0) translate(4 236)">
<title>tym_absolute_position_rectangle</title>
<polygon fill="white" stroke="none" points="-4,4 -4,-236 118,-236 118,4 -4,4"/>
<!-- Node1 -->
<g id="node1" class="node"><title>Node1</title>
<polygon fill="#bfbfbf" stroke="black" points="0,-0.5 0,-30.5 114,-30.5 114,-0.5 0,-0.5"/>
<text text-anchor="start" x="8" y="-18.5" font-family="Helvetica,sans-Serif" font-size="10.00">tym_absolute_position</text>
<text text-anchor="middle" x="57" y="-7.5" font-family="Helvetica,sans-Serif" font-size="10.00">_rectangle</text>
</g>
<!-- Node2 -->
<g id="node2" class="node"><title>Node2</title>
<g id="a_node2"><a xlink:href="structtym__absolute__position.html" target="_top" xlink:title="tym_absolute_position">
<polygon fill="white" stroke="black" points="0,-78.5 0,-97.5 114,-97.5 114,-78.5 0,-78.5"/>
<text text-anchor="middle" x="57" y="-85.5" font-family="Helvetica,sans-Serif" font-size="10.00">tym_absolute_position</text>
</a>
</g>
</g>
<!-- Node2&#45;&gt;Node1 -->
<g id="edge1" class="edge"><title>Node2&#45;&gt;Node1</title>
<path fill="none" stroke="#9a32cd" stroke-dasharray="5,2" d="M57,-68.2362C57,-56.4079 57,-41.3829 57,-30.5762"/>
<polygon fill="#9a32cd" stroke="#9a32cd" points="53.5001,-68.3553 57,-78.3553 60.5001,-68.3554 53.5001,-68.3553"/>
<text text-anchor="middle" x="69.5" y="-52" font-family="Helvetica,sans-Serif" font-size="10.00"> edge</text>
</g>
<!-- Node3 -->
<g id="node3" class="node"><title>Node3</title>
<g id="a_node3"><a xlink:href="structtym__position.html" target="_top" xlink:title="tym_position">
<polygon fill="white" stroke="black" points="21,-145.5 21,-164.5 93,-164.5 93,-145.5 21,-145.5"/>
<text text-anchor="middle" x="57" y="-152.5" font-family="Helvetica,sans-Serif" font-size="10.00">tym_position</text>
</a>
</g>
</g>
<!-- Node3&#45;&gt;Node2 -->
<g id="edge2" class="edge"><title>Node3&#45;&gt;Node2</title>
<path fill="none" stroke="#9a32cd" stroke-dasharray="5,2" d="M57,-135.037C57,-122.67 57,-107.12 57,-97.6273"/>
<polygon fill="#9a32cd" stroke="#9a32cd" points="53.5001,-135.234 57,-145.234 60.5001,-135.234 53.5001,-135.234"/>
<text text-anchor="middle" x="68" y="-119" font-family="Helvetica,sans-Serif" font-size="10.00"> type</text>
</g>
<!-- Node4 -->
<g id="node4" class="node"><title>Node4</title>
<g id="a_node4"><a xlink:href="structtym__unit.html" target="_top" xlink:title="tym_unit">
<polygon fill="white" stroke="black" points="30,-212.5 30,-231.5 84,-231.5 84,-212.5 30,-212.5"/>
<text text-anchor="middle" x="57" y="-219.5" font-family="Helvetica,sans-Serif" font-size="10.00">tym_unit</text>
</a>
</g>
</g>
<!-- Node4&#45;&gt;Node3 -->
<g id="edge3" class="edge"><title>Node4&#45;&gt;Node3</title>
<path fill="none" stroke="#9a32cd" stroke-dasharray="5,2" d="M57,-202.037C57,-189.67 57,-174.12 57,-164.627"/>
<polygon fill="#9a32cd" stroke="#9a32cd" points="53.5001,-202.234 57,-212.234 60.5001,-202.234 53.5001,-202.234"/>
<text text-anchor="middle" x="68" y="-186" font-family="Helvetica,sans-Serif" font-size="10.00"> axis</text>
</g>
</g>
</svg>
