<?xml version="1.0" encoding="UTF-8" standalone="no"?>
<!DOCTYPE svg PUBLIC "-//W3C//DTD SVG 1.1//EN"
 "http://www.w3.org/Graphics/SVG/1.1/DTD/svg11.dtd">
<!-- Generated by graphviz version 2.38.0 (20140413.2041)
 -->
<!-- Title: tym_i_handler_ptr_pair Pages: 1 -->
<svg width="123pt" height="307pt"
 viewBox="0.00 0.00 123.00 307.00" xmlns="http://www.w3.org/2000/svg" xmlns:xlink="http://www.w3.org/1999/xlink">
<g id="graph0" class="graph" transform="scale(1 1) rotate(0) translate(4 303)">
<title>tym_i_handler_ptr_pair</title>
<polygon fill="white" stroke="none" points="-4,4 -4,-303 119,-303 119,4 -4,4"/>
<!-- Node1 -->
<g id="node1" class="node"><title>Node1</title>
<polygon fill="#bfbfbf" stroke="black" points="-7.10543e-15,-0.5 -7.10543e-15,-19.5 115,-19.5 115,-0.5 -7.10543e-15,-0.5"/>
<text text-anchor="middle" x="57.5" y="-7.5" font-family="Helvetica,sans-Serif" font-size="10.00">tym_i_handler_ptr_pair</text>
</g>
<!-- Node2 -->
<g id="node2" class="node"><title>Node2</title>
<g id="a_node2"><a xlink:href="structtym__super__position__rectangle.html" target="_top" xlink:title="tym_super_position\l_rectangle">
<polygon fill="white" stroke="black" points="7,-67.5 7,-97.5 108,-97.5 108,-67.5 7,-67.5"/>
<text text-anchor="start" x="15" y="-85.5" font-family="Helvetica,sans-Serif" font-size="10.00">tym_super_position</text>
<text text-anchor="middle" x="57.5" y="-74.5" font-family="Helvetica,sans-Serif" font-size="10.00">_rectangle</text>
</a>
</g>
</g>
<!-- Node2&#45;&gt;Node1 -->
<g id="edge1" class="edge"><title>Node2&#45;&gt;Node1</title>
<path fill="none" stroke="#9a32cd" stroke-dasharray="5,2" d="M57.5,-57.0913C57.5,-44.2136 57.5,-29.1974 57.5,-19.8932"/>
<polygon fill="#9a32cd" stroke="#9a32cd" points="54.0001,-57.2332 57.5,-67.2333 61.0001,-57.2333 54.0001,-57.2332"/>
<text text-anchor="middle" x="77.5" y="-41" font-family="Helvetica,sans-Serif" font-size="10.00"> callback</text>
</g>
<!-- Node3 -->
<g id="node3" class="node"><title>Node3</title>
<g id="a_node3"><a xlink:href="structtym__super__position.html" target="_top" xlink:title="tym_super_position">
<polygon fill="white" stroke="black" points="7,-145.5 7,-164.5 108,-164.5 108,-145.5 7,-145.5"/>
<text text-anchor="middle" x="57.5" y="-152.5" font-family="Helvetica,sans-Serif" font-size="10.00">tym_super_position</text>
</a>
</g>
</g>
<!-- Node3&#45;&gt;Node2 -->
<g id="edge2" class="edge"><title>Node3&#45;&gt;Node2</title>
<path fill="none" stroke="#9a32cd" stroke-dasharray="5,2" d="M57.5,-135.236C57.5,-123.408 57.5,-108.383 57.5,-97.5762"/>
<polygon fill="#9a32cd" stroke="#9a32cd" points="54.0001,-135.355 57.5,-145.355 61.0001,-135.355 54.0001,-135.355"/>
<text text-anchor="middle" x="70" y="-119" font-family="Helvetica,sans-Serif" font-size="10.00"> edge</text>
</g>
<!-- Node4 -->
<g id="node4" class="node"><title>Node4</title>
<g id="a_node4"><a xlink:href="structtym__position.html" target="_top" xlink:title="tym_position">
<polygon fill="white" stroke="black" points="21.5,-212.5 21.5,-231.5 93.5,-231.5 93.5,-212.5 21.5,-212.5"/>
<text text-anchor="middle" x="57.5" y="-219.5" font-family="Helvetica,sans-Serif" font-size="10.00">tym_position</text>
</a>
</g>
</g>
<!-- Node4&#45;&gt;Node3 -->
<g id="edge3" class="edge"><title>Node4&#45;&gt;Node3</title>
<path fill="none" stroke="#9a32cd" stroke-dasharray="5,2" d="M57.5,-202.037C57.5,-189.67 57.5,-174.12 57.5,-164.627"/>
<polygon fill="#9a32cd" stroke="#9a32cd" points="54.0001,-202.234 57.5,-212.234 61.0001,-202.234 54.0001,-202.234"/>
<text text-anchor="middle" x="68.5" y="-186" font-family="Helvetica,sans-Serif" font-size="10.00"> type</text>
</g>
<!-- Node5 -->
<g id="node5" class="node"><title>Node5</title>
<g id="a_node5"><a xlink:href="structtym__unit.html" target="_top" xlink:title="tym_unit">
<polygon fill="white" stroke="black" points="30.5,-279.5 30.5,-298.5 84.5,-298.5 84.5,-279.5 30.5,-279.5"/>
<text text-anchor="middle" x="57.5" y="-286.5" font-family="Helvetica,sans-Serif" font-size="10.00">tym_unit</text>
</a>
</g>
</g>
<!-- Node5&#45;&gt;Node4 -->
<g id="edge4" class="edge"><title>Node5&#45;&gt;Node4</title>
<path fill="none" stroke="#9a32cd" stroke-dasharray="5,2" d="M57.5,-269.037C57.5,-256.67 57.5,-241.12 57.5,-231.627"/>
<polygon fill="#9a32cd" stroke="#9a32cd" points="54.0001,-269.234 57.5,-279.234 61.0001,-269.234 54.0001,-269.234"/>
<text text-anchor="middle" x="68.5" y="-253" font-family="Helvetica,sans-Serif" font-size="10.00"> axis</text>
</g>
</g>
</svg>
